<svg width="180" height="49" viewBox="0 0 180 49" fill="none" xmlns="http://www.w3.org/2000/svg">
<g clip-path="url(#clip0_2031_20046)">
<path d="M0 0V48.7046H49.0556V0H0ZM42.6812 42.3671H6.37446V6.33751H42.6812V42.3671Z" fill="white"/>
<path d="M49.5454 46.0532C49.5454 45.0647 50.3307 44.2609 51.3284 44.2609C52.3262 44.2609 53.1114 45.0554 53.1114 46.0532C53.1114 47.0509 52.3169 47.8269 51.3284 47.8269C50.3399 47.8269 49.5454 47.0417 49.5454 46.0532ZM52.6957 46.0532C52.6957 45.2494 52.0952 44.6859 51.3284 44.6859C50.5616 44.6859 49.9704 45.2587 49.9704 46.0532C49.9704 46.8477 50.5524 47.4112 51.3284 47.4112C52.1044 47.4112 52.6957 46.8477 52.6957 46.0532ZM52.1876 46.9585H51.7349L51.3192 46.1733H51.0328V46.9585H50.6171V45.1109H51.5224C51.9474 45.1109 52.243 45.1755 52.243 45.6744C52.243 46.0162 52.0675 46.1548 51.7441 46.1825L52.1968 46.9678L52.1876 46.9585ZM51.5224 45.8961C51.7349 45.8961 51.855 45.8407 51.855 45.6097C51.855 45.425 51.6148 45.425 51.43 45.425H51.0328V45.8961H51.5224Z" fill="white"/>
<path d="M31.7709 16.9986H17.2852V31.4843H31.7709V16.9986Z" fill="white"/>
<path d="M61.5366 8.70251H62.9316V21.3591H68.3268V22.7079H61.5366V8.70251Z" fill="white"/>
<path d="M77.2231 8.34222C79.348 8.34222 81.1217 9.05358 82.5537 10.467C83.9856 11.8805 84.697 13.6266 84.697 15.696C84.697 17.7653 83.9856 19.4837 82.5537 20.9156C81.131 22.3383 79.3942 23.0589 77.3432 23.0589C75.2923 23.0589 73.5093 22.3476 72.0774 20.9249C70.6454 19.5021 69.9341 17.7746 69.9341 15.7606C69.9341 14.4118 70.2574 13.1646 70.9134 12.0191C71.56 10.8735 72.4562 9.96817 73.574 9.32149C74.7011 8.67481 75.9205 8.34222 77.2231 8.34222ZM77.2878 9.7095C76.2439 9.7095 75.2646 9.97741 74.3408 10.5225C73.4077 11.0583 72.6871 11.7881 72.1605 12.7027C71.6432 13.6173 71.3753 14.6335 71.3753 15.7606C71.3753 17.4328 71.948 18.8278 73.1028 19.9825C74.2576 21.1281 75.6434 21.7009 77.2786 21.7009C78.3595 21.7009 79.3664 21.4422 80.2903 20.9156C81.2141 20.389 81.9347 19.6684 82.452 18.7538C82.9694 17.8392 83.2281 16.823 83.2281 15.696C83.2281 14.5689 82.9694 13.5804 82.452 12.6842C81.9347 11.7881 81.2049 11.0675 80.2626 10.5225C79.3295 9.97741 78.3225 9.7095 77.2693 9.7095H77.2878Z" fill="white"/>
<path d="M101.012 11.0583L99.9313 12.0838C99.146 11.317 98.2961 10.735 97.363 10.3377C96.43 9.94047 95.5246 9.74647 94.647 9.74647C93.5476 9.74647 92.5037 10.0144 91.5059 10.5594C90.5082 11.0953 89.7414 11.8251 89.1964 12.7489C88.6513 13.6728 88.3741 14.652 88.3741 15.6775C88.3741 16.7029 88.6605 17.7284 89.2241 18.68C89.7876 19.6315 90.5729 20.3706 91.5706 20.9156C92.5683 21.4607 93.6585 21.7286 94.841 21.7286C96.2822 21.7286 97.5016 21.3314 98.4994 20.5091C99.4971 19.6962 100.088 18.643 100.264 17.3496H95.8018V15.9916H101.834C101.825 18.1626 101.178 19.8809 99.9036 21.1558C98.6287 22.4307 96.9288 23.0682 94.7948 23.0682C92.208 23.0682 90.1571 22.1813 88.642 20.426C87.478 19.068 86.896 17.4974 86.896 15.7144C86.896 14.3934 87.2286 13.1554 87.8937 12.0099C88.5589 10.8643 89.4735 9.97743 90.6375 9.33074C91.8016 8.68406 93.1134 8.36072 94.5823 8.36072C95.774 8.36072 96.8827 8.5732 97.9358 9.0074C98.9798 9.43237 100.005 10.1252 101.003 11.0676L101.012 11.0583Z" fill="white"/>
<path d="M105.659 4.66534H107.71L104.902 7.60314H103.581L105.659 4.66534ZM104.31 8.7025H105.705V22.7078H104.31V8.7025Z" fill="white"/>
<path d="M107.47 20.1026L108.661 19.3913C109.502 20.9341 110.472 21.7009 111.562 21.7009C112.033 21.7009 112.477 21.59 112.883 21.3775C113.299 21.1558 113.613 20.8694 113.826 20.4999C114.047 20.1303 114.149 19.7423 114.149 19.3266C114.149 18.8554 113.992 18.3935 113.678 17.9408C113.244 17.3219 112.44 16.5643 111.276 15.6959C110.112 14.809 109.382 14.1716 109.096 13.7836C108.597 13.1277 108.357 12.4071 108.357 11.6403C108.357 11.0306 108.504 10.4763 108.791 9.96815C109.086 9.46004 109.502 9.07203 110.029 8.78564C110.555 8.49002 111.137 8.35144 111.756 8.35144C112.421 8.35144 113.031 8.51773 113.613 8.84107C114.186 9.17365 114.796 9.77415 115.433 10.6518L114.297 11.511C113.77 10.8181 113.318 10.3562 112.948 10.1344C112.579 9.91272 112.172 9.80186 111.738 9.80186C111.174 9.80186 110.712 9.97739 110.352 10.3192C109.992 10.661 109.816 11.086 109.816 11.5849C109.816 11.8897 109.881 12.1854 110.01 12.4717C110.14 12.7489 110.371 13.063 110.703 13.4048C110.888 13.5803 111.488 14.0423 112.514 14.7998C113.724 15.6959 114.556 16.4904 115.008 17.1925C115.461 17.8854 115.683 18.5875 115.683 19.2989C115.683 20.3151 115.295 21.1927 114.519 21.9411C113.752 22.6894 112.809 23.0681 111.701 23.0681C110.842 23.0681 110.075 22.8464 109.391 22.3845C108.698 21.9318 108.061 21.1743 107.47 20.1026Z" fill="white"/>
<path d="M117.235 10.0698V8.70251H124.912V10.0698H121.789V22.7079H120.357V10.0698H117.235Z" fill="white"/>
<path d="M126.731 8.70251H128.136V22.7079H126.731V8.70251Z" fill="white"/>
<path d="M144.386 11.2985L143.287 12.1484C142.677 11.3632 141.947 10.7534 141.088 10.3469C140.229 9.94046 139.296 9.73722 138.28 9.73722C137.162 9.73722 136.127 10.0051 135.175 10.541C134.224 11.0768 133.485 11.7974 132.967 12.7027C132.441 13.6081 132.182 14.6243 132.182 15.7514C132.182 17.4605 132.764 18.8832 133.938 20.0287C135.102 21.1743 136.58 21.7378 138.372 21.7378C140.33 21.7378 141.975 20.971 143.296 19.4375L144.395 20.2689C143.693 21.1651 142.825 21.8487 141.781 22.3383C140.737 22.8187 139.573 23.0589 138.289 23.0589C135.831 23.0589 133.901 22.2459 132.487 20.6108C131.295 19.225 130.704 17.5713 130.704 15.622C130.704 13.5711 131.425 11.8528 132.866 10.4486C134.307 9.04434 136.109 8.34222 138.27 8.34222C139.582 8.34222 140.765 8.6009 141.818 9.12748C142.871 9.64483 143.739 10.3654 144.405 11.2985H144.386Z" fill="white"/>
<path d="M152.922 8.70251L159.454 22.7079H157.939L155.74 18.0979H149.707L147.527 22.7079H145.966L152.58 8.70251H152.922ZM152.747 11.6773L150.345 16.7491H155.13L152.747 11.6773Z" fill="white"/>
<path d="M60.5664 27.983H63.1901L65.2225 36.9257L67.7169 27.983H69.9341L72.4746 36.9257L74.4794 27.983H77.1031L73.9435 41.9883H71.3845L68.807 32.9347L66.2757 41.9883H63.7444L60.5756 27.983H60.5664Z" fill="white"/>
<path d="M85.7968 27.6319C87.7738 27.6319 89.4829 28.3433 90.9056 29.7844C92.3375 31.2164 93.0489 32.9717 93.0489 35.0318C93.0489 37.092 92.3467 38.8011 90.9333 40.2145C89.529 41.628 87.82 42.3394 85.8152 42.3394C83.8105 42.3394 81.9628 41.6095 80.5678 40.1591C79.1821 38.7087 78.48 36.9811 78.48 34.9856C78.48 33.6461 78.8033 32.4081 79.45 31.2903C80.0967 30.1632 80.9928 29.2763 82.1291 28.6204C83.2654 27.9645 84.4849 27.6319 85.7968 27.6319ZM85.7598 30.2371C84.4664 30.2371 83.3671 30.6806 82.4894 31.5951C81.6025 32.4913 81.1591 33.6461 81.1591 35.0318C81.1591 36.5839 81.7134 37.8033 82.8312 38.6994C83.6904 39.4108 84.6882 39.7526 85.806 39.7526C87.0716 39.7526 88.1433 39.2907 89.0394 38.3853C89.9355 37.4707 90.3697 36.3437 90.3697 35.0041C90.3697 33.6645 89.9171 32.5467 89.0302 31.6229C88.1341 30.699 87.0439 30.2371 85.7598 30.2371Z" fill="white"/>
<path d="M102.176 27.6319C104.153 27.6319 105.862 28.3433 107.285 29.7844C108.708 31.2164 109.428 32.9717 109.428 35.0318C109.428 37.092 108.726 38.8011 107.313 40.2145C105.908 41.628 104.199 42.3394 102.185 42.3394C100.171 42.3394 98.3422 41.6095 96.9472 40.1591C95.5523 38.7087 94.8594 36.9811 94.8594 34.9856C94.8594 33.6461 95.1827 32.4081 95.8294 31.2903C96.4761 30.1632 97.3722 29.2763 98.4993 28.6204C99.6356 27.9645 100.855 27.6319 102.167 27.6319H102.176ZM102.148 30.2371C100.846 30.2371 99.7649 30.6806 98.8781 31.5951C98.0004 32.4913 97.557 33.6461 97.557 35.0318C97.557 36.5839 98.1113 37.8033 99.2291 38.6994C100.098 39.4108 101.086 39.7526 102.204 39.7526C103.47 39.7526 104.541 39.2907 105.437 38.3853C106.333 37.4707 106.768 36.3437 106.768 35.0041C106.768 33.6645 106.315 32.5467 105.419 31.6229C104.523 30.699 103.433 30.2371 102.148 30.2371Z" fill="white"/>
<path d="M111.95 27.983H115.11C117.142 27.983 118.666 28.2324 119.646 28.7405C120.634 29.2394 121.447 30.0616 122.094 31.1979C122.731 32.3342 123.055 33.6645 123.055 35.1704C123.055 36.2513 122.87 37.249 122.519 38.1451C122.159 39.0505 121.66 39.7988 121.031 40.3993C120.394 40.9906 119.71 41.4063 118.981 41.6372C118.251 41.8682 116.976 41.9791 115.156 41.9791H111.95V27.9737V27.983ZM114.592 30.5605V39.4016H115.83C117.05 39.4016 117.937 39.263 118.482 38.9766C119.036 38.6994 119.479 38.2283 119.831 37.5631C120.182 36.898 120.357 36.085 120.357 35.1242C120.357 33.6368 119.941 32.482 119.11 31.6691C118.362 30.93 117.161 30.5605 115.498 30.5605H114.592Z" fill="white"/>
<path d="M124.533 27.983H127.157L129.18 36.9257L131.684 27.983H133.901L136.441 36.9257L138.446 27.983H141.07L137.91 41.9883H135.351L132.774 32.9347L130.242 41.9883H127.702L124.533 27.983Z" fill="white"/>
<path d="M147.416 27.983H150.123L155.509 41.9883H152.737L151.638 39.1059H145.92L144.783 41.9883H142.012L147.416 27.983ZM148.783 31.6968L146.908 36.5007H150.659L148.793 31.6968H148.783Z" fill="white"/>
<path d="M157.754 27.983H160.581C162.124 27.983 163.232 28.1215 163.888 28.3894C164.544 28.6666 165.071 29.1285 165.468 29.766C165.865 30.4034 166.068 31.1609 166.068 32.0386C166.068 32.9624 165.847 33.7292 165.403 34.3482C164.96 34.9671 164.295 35.4383 163.408 35.7432L166.724 41.9698H163.805L160.655 36.0388H160.405V41.9698H157.745V27.9645L157.754 27.983ZM160.415 33.4521H161.246C162.096 33.4521 162.678 33.3412 162.992 33.1195C163.315 32.8978 163.472 32.5282 163.472 32.0201C163.472 31.7152 163.398 31.4473 163.241 31.2164C163.084 30.9947 162.872 30.8284 162.604 30.7267C162.345 30.6344 161.856 30.5789 161.144 30.5789H160.415V33.4521Z" fill="white"/>
<path d="M168.896 27.983H172.055C174.097 27.983 175.612 28.2324 176.591 28.7405C177.58 29.2394 178.393 30.0616 179.039 31.1979C179.686 32.3342 180 33.6645 180 35.1704C180 36.2513 179.824 37.249 179.464 38.1451C179.104 39.0505 178.614 39.7988 177.977 40.3993C177.339 40.9906 176.665 41.4063 175.926 41.6372C175.187 41.8682 173.921 41.9791 172.101 41.9791H168.896V27.9737V27.983ZM171.547 30.5605V39.4016H172.785C174.004 39.4016 174.891 39.263 175.436 38.9766C175.991 38.6994 176.434 38.2283 176.785 37.5631C177.136 36.898 177.312 36.085 177.312 35.1242C177.312 33.6368 176.896 32.482 176.064 31.6691C175.316 30.93 174.106 30.5605 172.452 30.5605H171.547Z" fill="white"/>
</g>
<defs>
<clipPath id="clip0_2031_20046">
<rect width="180" height="48.7046" fill="white"/>
</clipPath>
</defs>
</svg>
