<svg width="180" height="51" viewBox="0 0 180 51" fill="none" xmlns="http://www.w3.org/2000/svg">
<g clip-path="url(#clip0_2031_19687)">
<path d="M51.3526 0H0V50.6465H51.3526V0Z" fill="white"/>
<path d="M49.9771 46.9234C49.9771 45.6396 51.0041 44.6125 52.2787 44.6125C53.5534 44.6125 54.5804 45.6396 54.5804 46.9234C54.5804 48.2072 53.5626 49.2251 52.2787 49.2251C50.9949 49.2251 49.9771 48.1981 49.9771 46.9234Z" fill="white"/>
<path d="M1.32959 1.21045V49.5552H50.0229V1.21045H1.32959ZM43.6955 43.2645H7.65696V7.49197H43.6955V43.2554V43.2645Z" fill="#1F427C"/>
<path d="M50.5088 46.9234C50.5088 45.9422 51.2882 45.1444 52.2786 45.1444C53.269 45.1444 54.0484 45.933 54.0484 46.9234C54.0484 47.9138 53.2598 48.6841 52.2786 48.6841C51.2974 48.6841 50.5088 47.9046 50.5088 46.9234ZM53.6358 46.9234C53.6358 46.1256 53.0397 45.5662 52.2786 45.5662C51.5175 45.5662 50.9306 46.1348 50.9306 46.9234C50.9306 47.712 51.5083 48.2714 52.2786 48.2714C53.0489 48.2714 53.6358 47.712 53.6358 46.9234ZM53.1314 47.8129H52.6821L52.2694 47.0335H51.9852V47.8129H51.5725V45.9789H52.4712C52.893 45.9789 53.1865 46.0431 53.1865 46.5383C53.1865 46.8776 53.0122 47.0151 52.6913 47.0426L53.1406 47.8221L53.1314 47.8129ZM52.4712 46.7675C52.6821 46.7675 52.8013 46.7125 52.8013 46.4832C52.8013 46.2998 52.5629 46.2998 52.3795 46.2998H51.9852V46.7675H52.4712Z" fill="#1F427C"/>
<path d="M32.8655 18.0834H18.4868V32.4622H32.8655V18.0834Z" fill="#DF1D39"/>
<path d="M62.4116 9.84869H63.7963V22.4117H69.1517V23.7506H62.4116V9.84869Z" fill="#003E7E"/>
<path d="M77.9828 9.49109C80.0919 9.49109 81.8526 10.1972 83.2739 11.6002C84.6953 13.0032 85.4014 14.7364 85.4014 16.7905C85.4014 18.8446 84.6953 20.5502 83.2739 21.9716C81.8617 23.3838 80.1377 24.0991 78.102 24.0991C76.0662 24.0991 74.2964 23.393 72.875 21.9808C71.4537 20.5686 70.7476 18.8538 70.7476 16.8547C70.7476 15.5158 71.0685 14.2779 71.7196 13.1408C72.3615 12.0037 73.251 11.105 74.3606 10.4631C75.4793 9.82121 76.6898 9.49109 77.9828 9.49109ZM78.047 10.8483C77.0107 10.8483 76.0387 11.1142 75.1217 11.6552C74.1955 12.1871 73.4802 12.9115 72.9576 13.8194C72.444 14.7272 72.1781 15.7359 72.1781 16.8547C72.1781 18.5145 72.7466 19.8992 73.8929 21.0454C75.0392 22.1825 76.4147 22.7511 78.0378 22.7511C79.1107 22.7511 80.1102 22.4943 81.0272 21.9716C81.9443 21.4489 82.6595 20.7336 83.173 19.8258C83.6866 18.918 83.9433 17.9092 83.9433 16.7905C83.9433 15.6717 83.6866 14.6905 83.173 13.801C82.6595 12.9115 81.9351 12.1963 80.9997 11.6552C80.0736 11.1142 79.074 10.8483 78.0286 10.8483H78.047Z" fill="#003E7E"/>
<path d="M101.595 12.1779L100.523 13.1958C99.7431 12.4347 98.8994 11.857 97.9732 11.4626C97.047 11.0683 96.1484 10.8758 95.2772 10.8758C94.186 10.8758 93.1497 11.1417 92.1594 11.6827C91.169 12.2146 90.4079 12.939 89.8669 13.856C89.3258 14.7731 89.0507 15.7451 89.0507 16.763C89.0507 17.7809 89.335 18.7987 89.8944 19.7433C90.4537 20.6878 91.2332 21.4214 92.2236 21.9624C93.2139 22.5035 94.296 22.7694 95.4698 22.7694C96.9003 22.7694 98.1108 22.3751 99.1011 21.5589C100.092 20.752 100.678 19.7066 100.853 18.4228H96.4235V17.0748H102.412C102.402 19.2297 101.76 20.9354 100.495 22.2008C99.2295 23.4663 97.5422 24.0991 95.4239 24.0991C92.8563 24.0991 90.8205 23.2187 89.3166 21.4764C88.1612 20.1284 87.5835 18.5695 87.5835 16.7996C87.5835 15.4883 87.9136 14.2595 88.5739 13.1224C89.2341 11.9853 90.142 11.105 91.2974 10.4631C92.4528 9.8212 93.755 9.50024 95.213 9.50024C96.396 9.50024 97.4964 9.71116 98.5418 10.1422C99.578 10.564 100.596 11.2517 101.586 12.1871L101.595 12.1779Z" fill="#003E7E"/>
<path d="M106.208 5.83221H108.244L105.456 8.74831H104.145L106.208 5.83221ZM104.869 9.84872H106.254V23.7506H104.869V9.84872Z" fill="#003E7E"/>
<path d="M108.005 21.1555L109.188 20.4494C110.023 21.9808 110.986 22.7419 112.068 22.7419C112.535 22.7419 112.976 22.6319 113.379 22.4209C113.792 22.2009 114.103 21.9166 114.314 21.5498C114.534 21.183 114.635 20.7978 114.635 20.3852C114.635 19.9175 114.479 19.459 114.168 19.0097C113.737 18.3953 112.939 17.6433 111.783 16.7813C110.628 15.901 109.904 15.2683 109.619 14.8831C109.124 14.232 108.886 13.5168 108.886 12.7556C108.886 12.1504 109.032 11.6002 109.317 11.0959C109.61 10.5915 110.023 10.2064 110.545 9.92208C111.068 9.62864 111.646 9.49109 112.26 9.49109C112.921 9.49109 113.526 9.65615 114.103 9.9771C114.672 10.3072 115.277 10.9033 115.91 11.7744L114.782 12.6273C114.259 11.9395 113.81 11.481 113.443 11.2609C113.076 11.0408 112.673 10.9308 112.242 10.9308C111.683 10.9308 111.224 11.105 110.866 11.4443C110.509 11.7836 110.335 12.2054 110.335 12.7006C110.335 13.0032 110.399 13.2967 110.527 13.581C110.656 13.8561 110.885 14.1678 111.215 14.5071C111.398 14.6814 111.994 15.1399 113.012 15.8918C114.214 16.7813 115.039 17.57 115.488 18.2669C115.938 18.9546 116.158 19.6516 116.158 20.3577C116.158 21.3664 115.772 22.2375 115.002 22.9803C114.241 23.7231 113.306 24.0991 112.205 24.0991C111.352 24.0991 110.591 23.879 109.913 23.4205C109.225 22.9711 108.592 22.2192 108.005 21.1555Z" fill="#003E7E"/>
<path d="M117.698 11.2059V9.84869H125.319V11.2059H122.219V23.7506H120.798V11.2059H117.698Z" fill="#003E7E"/>
<path d="M127.125 9.84869H128.519V23.7506H127.125V9.84869Z" fill="#003E7E"/>
<path d="M144.649 12.4255L143.558 13.2692C142.953 12.4897 142.228 11.8845 141.376 11.481C140.523 11.0775 139.597 10.8758 138.588 10.8758C137.478 10.8758 136.451 11.1417 135.507 11.6736C134.562 12.2054 133.829 12.9207 133.315 13.8194C132.792 14.718 132.536 15.7268 132.536 16.8455C132.536 18.542 133.113 19.9542 134.278 21.0913C135.433 22.2284 136.901 22.7877 138.68 22.7877C140.624 22.7877 142.256 22.0266 143.567 20.5044L144.658 21.3297C143.962 22.2192 143.1 22.8978 142.063 23.3838C141.027 23.8606 139.872 24.0991 138.597 24.0991C136.158 24.0991 134.241 23.2921 132.838 21.669C131.655 20.2935 131.068 18.652 131.068 16.7171C131.068 14.6814 131.784 12.9757 133.214 11.5819C134.645 10.188 136.433 9.49109 138.579 9.49109C139.881 9.49109 141.055 9.74785 142.1 10.2705C143.145 10.7841 144.007 11.4993 144.668 12.4255H144.649Z" fill="#003E7E"/>
<path d="M153.122 9.84869L159.606 23.7506H158.102L155.919 19.1747H149.931L147.767 23.7506H146.217L152.783 9.84869H153.122ZM152.948 12.8015L150.564 17.8359H155.314L152.948 12.8015Z" fill="#003E7E"/>
<path d="M61.4487 28.9867H64.053L66.0705 37.8634L68.5464 28.9867H70.7472L73.269 37.8634L75.2589 28.9867H77.8632L74.727 42.8886H72.1869L69.6285 33.9019L67.1159 42.8886H64.6032L61.4579 28.9867H61.4487Z" fill="#003E7E"/>
<path d="M86.4922 28.6382C88.4546 28.6382 90.1511 29.3443 91.5633 30.7749C92.9846 32.1962 93.6907 33.9386 93.6907 35.9835C93.6907 38.0284 92.9938 39.7249 91.5908 41.1279C90.1969 42.531 88.5005 43.2371 86.5106 43.2371C84.5206 43.2371 82.6866 42.5126 81.3019 41.0729C79.9264 39.6332 79.2295 37.9184 79.2295 35.9376C79.2295 34.608 79.5504 33.3792 80.1923 32.2696C80.8343 31.1509 81.7238 30.2705 82.8517 29.6194C83.9796 28.9684 85.1901 28.6382 86.4922 28.6382ZM86.4555 31.2242C85.1717 31.2242 84.0805 31.6644 83.2093 32.5722C82.329 33.4617 81.8888 34.608 81.8888 35.9835C81.8888 37.5241 82.439 38.7345 83.5486 39.624C84.4014 40.3301 85.3918 40.6694 86.5014 40.6694C87.7577 40.6694 88.8214 40.2109 89.7109 39.3122C90.6004 38.4044 91.0314 37.2857 91.0314 35.956C91.0314 34.6263 90.5821 33.5167 89.7018 32.5997C88.8123 31.6827 87.7302 31.2242 86.4555 31.2242Z" fill="#003E7E"/>
<path d="M102.751 28.6382C104.713 28.6382 106.41 29.3443 107.822 30.7749C109.234 32.1962 109.95 33.9386 109.95 35.9835C109.95 38.0284 109.253 39.7249 107.85 41.1279C106.456 42.531 104.759 43.2371 102.76 43.2371C100.761 43.2371 98.9454 42.5126 97.5607 41.0729C96.176 39.6332 95.4883 37.9184 95.4883 35.9376C95.4883 34.608 95.8092 33.3792 96.4511 32.2696C97.0931 31.1509 97.9826 30.2705 99.1013 29.6194C100.229 28.9684 101.44 28.6382 102.742 28.6382H102.751ZM102.723 31.2242C101.431 31.2242 100.358 31.6644 99.4773 32.5722C98.6061 33.4617 98.166 34.608 98.166 35.9835C98.166 37.5241 98.7162 38.7345 99.8257 39.624C100.688 40.3301 101.669 40.6694 102.779 40.6694C104.035 40.6694 105.099 40.2109 105.988 39.3122C106.878 38.4044 107.309 37.2857 107.309 35.956C107.309 34.6263 106.859 33.5167 105.97 32.5997C105.08 31.6827 103.998 31.2242 102.723 31.2242Z" fill="#003E7E"/>
<path d="M112.453 28.9867H115.589C117.607 28.9867 119.12 29.2343 120.092 29.7387C121.073 30.2338 121.88 31.05 122.522 32.1779C123.155 33.3058 123.476 34.6263 123.476 36.1211C123.476 37.194 123.292 38.1843 122.944 39.0738C122.586 39.9725 122.091 40.7153 121.467 41.3113C120.835 41.8982 120.156 42.3109 119.432 42.5401C118.707 42.7694 117.442 42.8794 115.635 42.8794H112.453V28.9775V28.9867ZM115.076 31.536V40.3118H116.305C117.515 40.3118 118.395 40.1742 118.936 39.89C119.487 39.6149 119.927 39.1472 120.275 38.4869C120.624 37.8267 120.798 37.0197 120.798 36.066C120.798 34.5896 120.385 33.4434 119.56 32.6364C118.817 31.9028 117.625 31.536 115.974 31.536H115.076Z" fill="#003E7E"/>
<path d="M124.943 28.9867H127.547L129.555 37.8634L132.041 28.9867H134.241L136.763 37.8634L138.753 28.9867H141.357L138.221 42.8886H135.681L133.123 33.9019L130.61 42.8886H128.088L124.943 28.9867Z" fill="#003E7E"/>
<path d="M147.657 28.9867H150.344L155.69 42.8886H152.939L151.848 40.0275H146.171L145.044 42.8886H142.292L147.657 28.9867ZM149.014 32.6731L147.153 37.4415H150.876L149.023 32.6731H149.014Z" fill="#003E7E"/>
<path d="M157.918 28.9867H160.724C162.256 28.9867 163.356 29.1243 164.007 29.3902C164.658 29.6653 165.181 30.1238 165.575 30.7566C165.97 31.3893 166.171 32.1412 166.171 33.0124C166.171 33.9294 165.951 34.6905 165.511 35.3049C165.071 35.9193 164.411 36.387 163.53 36.6896L166.823 42.8703H163.925L160.798 36.9831H160.55V42.8703H157.909V28.9684L157.918 28.9867ZM160.559 34.4154H161.385C162.228 34.4154 162.806 34.3054 163.118 34.0853C163.439 33.8652 163.595 33.4984 163.595 32.9941C163.595 32.6914 163.521 32.4255 163.365 32.1963C163.209 31.9762 162.999 31.8111 162.733 31.7102C162.476 31.6185 161.99 31.5635 161.284 31.5635H160.559V34.4154Z" fill="#003E7E"/>
<path d="M168.978 28.9867H172.114C174.14 28.9867 175.644 29.2343 176.616 29.7387C177.597 30.2338 178.404 31.05 179.046 32.1779C179.688 33.3058 180 34.6263 180 36.1211C180 37.194 179.826 38.1843 179.468 39.0738C179.111 39.9725 178.624 40.7153 177.992 41.3113C177.359 41.8982 176.69 42.3109 175.956 42.5401C175.222 42.7694 173.966 42.8794 172.16 42.8794H168.978V28.9775V28.9867ZM171.609 31.536V40.3118H172.838C174.049 40.3118 174.929 40.1742 175.47 39.89C176.02 39.6149 176.46 39.1472 176.809 38.4869C177.157 37.8267 177.332 37.0197 177.332 36.066C177.332 34.5896 176.919 33.4434 176.094 32.6364C175.351 31.9028 174.149 31.536 172.508 31.536H171.609Z" fill="#003E7E"/>
</g>
<defs>
<clipPath id="clip0_2031_19687">
<rect width="180" height="50.6465" fill="white"/>
</clipPath>
</defs>
</svg>
